<svg xmlns="http://www.w3.org/2000/svg" viewBox="0 0 4500 3214.39">
	<defs>
	</defs>
	<path class="a" d="M4107.13,892.8H2821.4v642.87h974.33c172,0,311.4,139.51,311.4,311.41V3152.92c0,171.9-139.38,311.41-311.4,311.41H3464.27V2821.46c0-247-92.86-472.27-245.58-642.92A961.46,961.46,0,0,0,2500,1857.17h-6.66c-172,1.12-312.53-135.9-314.71-307.36-.06-1.31-.06-2.62-.06-4v-10.15c0-355-287.74-642.8-642.81-642.87H250V4107.2H1535.73c267.25,0,496.45-163.12,593.42-395.3a641.3,641.3,0,0,0,49.39-247.57h.06V2818.6c0-177.5,143.87-321.37,321.37-321.37S2821.4,2641.1,2821.4,2818.6c0,.93,0,1.93-.06,2.86h.06V4107.2H4107.13c355,0,642.87-287.81,642.87-642.87V1535.67C4750,1180.6,4462.14,892.8,4107.13,892.8ZM1535.73,3152.92c0,172-139.45,311.41-311.4,311.41H892.81V1535.67h331.46c172,0,311.4,139.51,311.4,311.41v331.46h.06Z" transform="translate(-250 -892.8)" fill="white"/>
</svg>